<svg id="Layer_1" data-name="Layer 1" xmlns="http://www.w3.org/2000/svg" viewBox="0 0 1114.68 557.47"><defs><style>.cls-1{fill:#918f92;}.cls-2{fill:#262262;}.cls-3{fill:#c3bec2;}.cls-4{fill:#fff;}.cls-5{fill:#ff7a02;}.cls-6{fill:#58595b;}.cls-7{fill:none;stroke:#fff;stroke-miterlimit:10;stroke-width:0.46px;}</style></defs><path class="cls-1" d="M1113,334.89c6.69,17.67-5.45,38.65-27.13,46.87s-44.68.57-51.37-17.1,5.44-38.65,27.12-46.87S1106.34,317.23,1113,334.89Z" transform="translate(-4.66 -81.26)"/><path class="cls-2" d="M1113,334.89c6.69,17.67-5.45,38.65-27.13,46.87s-44.68.57-51.37-17.1,5.44-38.65,27.12-46.87S1106.34,317.23,1113,334.89Zm-52.72-20.62c-23.7,9-36.7,32.68-29,52.92s33.11,29.35,56.81,20.36,36.7-32.67,29-52.91S1084,305.28,1060.32,314.27Z" transform="translate(-4.66 -81.26)"/><polygon class="cls-1" points="995.64 280.07 1026.99 263.32 1037.18 274.65 1000.75 292.71 995.64 280.07"/><path class="cls-2" d="M1004.7,375.85l-6.12-15.14L1032,342.88l12.1,13.46ZM1002,362l4.1,10.15,33.51-16.62-8.28-9.21Z" transform="translate(-4.66 -81.26)"/><path class="cls-3" d="M1087.06,319.38c4.46,11.78-3.39,25.68-17.54,31.05s-29.24.16-33.71-11.61,3.39-25.68,17.54-31.05S1082.59,307.6,1087.06,319.38Z" transform="translate(-4.66 -81.26)"/><path class="cls-2" d="M1066.67,330c.75,2-.56,4.3-2.93,5.2s-4.89,0-5.64-1.95.56-4.3,2.93-5.2S1065.92,328,1066.67,330Z" transform="translate(-4.66 -81.26)"/><path class="cls-2" d="M1098.63,317.86c6.33,16.69-4.32,36.2-23.77,43.58s-40.36-.17-46.69-16.86,4.31-36.2,23.77-43.58S1092.3,301.17,1098.63,317.86Zm-45.28-10.09c-14.15,5.37-22,19.27-17.54,31.05s19.56,17,33.71,11.61,22-19.27,17.54-31.05S1067.5,302.41,1053.35,307.77Z" transform="translate(-4.66 -81.26)"/><path class="cls-4" d="M1006.31,362.48a69.38,69.38,0,0,1,22-10.81,69.28,69.28,0,0,1-22,10.81Z" transform="translate(-4.66 -81.26)"/><path class="cls-4" d="M1045.16,372.36c28.9,16.54,67.88-2.93,61.8-38.31a34.32,34.32,0,0,1-1.3,23.15c-9.37,23.9-41,29-60.5,15.16Z" transform="translate(-4.66 -81.26)"/><path class="cls-4" d="M1081.38,314.17c-19.68-11.46-46.71,2.28-42.38,26.27-6.8-24.81,23.17-40.24,42.38-26.27Z" transform="translate(-4.66 -81.26)"/><path class="cls-5" d="M559.27,423.24A86.76,86.76,0,0,1,528.38,419a839.18,839.18,0,0,0,48.46,68.63s63.56-53,120.62-114.7C653.62,401.59,605.55,420.94,559.27,423.24Z" transform="translate(-4.66 -81.26)"/><path class="cls-2" d="M73,561.14q-22.17,0-34-14.15T31,510.64q4-23.55,18.83-36.62T87.6,461q22.43,0,34.15,14.09t8,36.41q-4,23.55-18.9,36.62T73,561.14Zm2.57-22.73a27.38,27.38,0,0,0,19.53-7.55q8-7.56,10.19-20.35,2.06-12.25-3.46-19.54T85,483.69a27.46,27.46,0,0,0-19.47,7.56q-8.09,7.54-10.12,20.34-2.07,12.26,3.39,19.54T75.56,538.41Z" transform="translate(-4.66 -81.26)"/><path class="cls-2" d="M205.88,463.41h24.47l-15.76,95.28h-21.4l-27.68-53.22-3.33,22.73-5,30.49H132.7l15.77-95.28h21.14l27.81,54.17,3.46-23.68Z" transform="translate(-4.66 -81.26)"/><path class="cls-2" d="M348.63,463.41l-3.72,22.46H318.26l-12.05,72.82H281.48l12-72.82H267l3.72-22.46Z" transform="translate(-4.66 -81.26)"/><path class="cls-2" d="M417.32,463.41h24.73l-15.76,95.28H401.55l6-36.75H374.64l-6,36.75H343.88l15.77-95.28h24.74l-5.91,35.53h32.94Z" transform="translate(-4.66 -81.26)"/><path class="cls-2" d="M526.88,484.37H481l-2.56,15.93H521.5l-3.33,20.15H475.11l-2.82,17H519.7l-3.58,21.23H444.61l15.76-95.28h70Z" transform="translate(-4.66 -81.26)"/><path class="cls-2" d="M390.39,136c23.1,0,42.12,9.46,54.07,24.66s17.19,36.2,12.23,59.27c-2.37,11-4.62,21.87-7.07,32.8s-4.7,21.83-7.06,32.77c-5,23.07-18.75,44.1-37.22,59.29S364,369.4,341,369.4H55.14q12.21-58.33,24.72-116.69T104.58,136ZM294.76,323.65c10.32,0,21.19-8.71,23.37-19.28,3.8-17.21,7.46-34.43,11.14-51.66s7.33-34.46,10.86-51.69c2.45-10.57-4.62-19.28-14.94-19.28H215.43c-5.17,23.67-10.05,47.32-15.21,71S190.16,300,185,323.65Z" transform="translate(-4.66 -81.26)"/><path class="cls-5" d="M649.37,561.14a76.6,76.6,0,0,1-24.6-3.94,56.05,56.05,0,0,1-19.54-10.89l15.92-17.57q11.15,9.68,30,9.67,8.25,0,13.39-2.65t5.13-6.88q0-6.66-15.77-8-18.39-1.77-27-8.3t-8.61-18.79q0-14.14,13.17-23.48T664.86,461q22.42,0,36.33,11.16l-14.77,16.75q-9.1-6.4-24.31-6.41-7.67,0-12.16,2.25c-3,1.5-4.48,3.57-4.48,6.19q0,7.08,15.92,8.44,17.22,1.5,26.41,8.45A21.78,21.78,0,0,1,697,526q0,15.81-13,25.46T649.37,561.14Z" transform="translate(-4.66 -81.26)"/><path class="cls-5" d="M772.25,463.41q15.91,0,25.18,8t9.27,21.78q0,17.68-13.1,28.65t-34.38,11H738.39l-4.78,25.86H705.68l17.79-95.28Zm-8.68,47.1a15.57,15.57,0,0,0,10.85-4.09,13.52,13.52,0,0,0,4.48-10.48,9.13,9.13,0,0,0-3-7.28,11.85,11.85,0,0,0-8.1-2.66h-21l-4.63,24.51Z" transform="translate(-4.66 -81.26)"/><path class="cls-5" d="M858.94,561.14q-25,0-38.36-14.15t-9.11-36.35Q816,487.09,832.74,474T875.44,461q25.32,0,38.57,14.09t9,36.41q-4.5,23.55-21.35,36.62T858.94,561.14Zm2.9-22.73q13,0,22.06-7.55t11.51-20.35q2.33-12.25-3.9-19.54t-19-7.28q-12.9,0-22,7.56t-11.44,20.34q-2.31,12.26,3.83,19.54T861.84,538.41Z" transform="translate(-4.66 -81.26)"/><path class="cls-5" d="M1024.8,463.41l-4.19,22.46H990.5l-13.6,72.82H949l13.6-72.82h-30l4.2-22.46Z" transform="translate(-4.66 -81.26)"/><polygon class="cls-6" points="986.38 557.47 0 557.47 13.46 498.29 1000.05 498.29 986.38 557.47"/><path class="cls-4" d="M111.65,595.36q6,0,9.5,3.42t3.5,9.23a17.12,17.12,0,0,1-5.13,12.8,18,18,0,0,1-13.1,5H95.07l5.4-30.45Zm-4.53,26.4a12.93,12.93,0,0,0,13.23-13.18A9.21,9.21,0,0,0,118,601.8a9.1,9.1,0,0,0-6.76-2.4H104l-3.91,22.36Z" transform="translate(-4.66 -81.26)"/><path class="cls-4" d="M142.44,626.46q-7,0-10.53-4.52t-2.3-11.75A18.51,18.51,0,0,1,135.76,599a17.55,17.55,0,0,1,11.86-4.26q7,0,10.54,4.52T160.49,611a18.46,18.46,0,0,1-6.17,11.22A17.6,17.6,0,0,1,142.44,626.46Zm.44-4.05a12.63,12.63,0,0,0,8.74-3.32,14.82,14.82,0,0,0,4.65-8.73q.91-5.13-1.58-8.39t-7.42-3.26a12.63,12.63,0,0,0-8.76,3.35,14.8,14.8,0,0,0-4.68,8.74q-.92,5.13,1.59,8.38T142.88,622.41Z" transform="translate(-4.66 -81.26)"/><path class="cls-4" d="M190.64,595.36l-.7,4H179.67L175,625.81h-4.31l4.7-26.49H165.15l.73-4Z" transform="translate(-4.66 -81.26)"/><path class="cls-4" d="M220.78,595.36a9.2,9.2,0,0,1,6.57,2.37,8.12,8.12,0,0,1,2.52,6.2,11.8,11.8,0,0,1-3.57,8.8,12.24,12.24,0,0,1-9,3.51h-10l-1.65,9.57h-4.26l5.35-30.45Zm-2.87,16.79a7.34,7.34,0,0,0,5.44-2.31,7.57,7.57,0,0,0,2.26-5.52,4.57,4.57,0,0,0-1.48-3.59,5.8,5.8,0,0,0-4-1.33h-9.75l-2.26,12.75Z" transform="translate(-4.66 -81.26)"/><path class="cls-4" d="M258.84,595.36h4.3l-5.35,30.45h-4.3l2.39-13.53H239l-2.39,13.53H232.3l5.35-30.45h4.27l-2.26,13h16.92Z" transform="translate(-4.66 -81.26)"/><path class="cls-4" d="M296.94,595.36l-15.4,18-2.22,12.4h-4.25l2.16-12.4-8.69-18h4.7l6.52,13.83,11.75-13.83Z" transform="translate(-4.66 -81.26)"/><path class="cls-4" d="M307.42,626.37a20.2,20.2,0,0,1-7.15-1.24A13.49,13.49,0,0,1,295,621.8l2.56-3.08a10.55,10.55,0,0,0,4.22,2.71,16,16,0,0,0,5.7,1,12.5,12.5,0,0,0,6.51-1.53,4.71,4.71,0,0,0,2.63-4A3.7,3.7,0,0,0,315,613.6a15.48,15.48,0,0,0-6-1.89c-3.6-.61-6.21-1.57-7.85-2.89a6.4,6.4,0,0,1-2.42-5.33,7.59,7.59,0,0,1,3.55-6.31,15.56,15.56,0,0,1,9-2.39,19.25,19.25,0,0,1,6.25.87,13.53,13.53,0,0,1,4.76,3l-2.57,3q-3-3.13-8.65-3.13a11.57,11.57,0,0,0-5.83,1.31,4.07,4.07,0,0,0-2.35,3.39,3.33,3.33,0,0,0,1.65,3,15.48,15.48,0,0,0,5.57,1.82c3.86.67,6.61,1.68,8.27,3a6.6,6.6,0,0,1,2.39,5.59,8.61,8.61,0,0,1-3.74,7.07Q313.42,626.37,307.42,626.37Z" transform="translate(-4.66 -81.26)"/><path class="cls-4" d="M325.73,625.81l5.35-30.45h4.26L330,625.81Z" transform="translate(-4.66 -81.26)"/><path class="cls-4" d="M352.87,626.41q-6.17,0-9.85-3.56a12.56,12.56,0,0,1-3.67-9.44A18.06,18.06,0,0,1,358,594.75a12.54,12.54,0,0,1,10.3,4.61l-2.95,2.48a10,10,0,0,0-7.83-3.18,13.18,13.18,0,0,0-9.85,4.22,14.12,14.12,0,0,0-4.07,10.18,9.19,9.19,0,0,0,2.55,6.9c1.69,1.66,4.11,2.5,7.24,2.5a13.3,13.3,0,0,0,4.82-1,14.33,14.33,0,0,0,4.36-2.61l2.52,3.17A18.68,18.68,0,0,1,352.87,626.41Z" transform="translate(-4.66 -81.26)"/><path class="cls-4" d="M394.76,625.81l-1.82-6.62H375.88l-4.08,6.62H367l19-30.45h4.78l8.31,30.45Zm-6.92-26.06-9.57,15.44H392Z" transform="translate(-4.66 -81.26)"/><path class="cls-4" d="M409.29,621.85h16.35l-.7,4H404.33l5.35-30.45h4.26Z" transform="translate(-4.66 -81.26)"/><path class="cls-4" d="M441.31,626.37a20.21,20.21,0,0,1-7.16-1.24,13.49,13.49,0,0,1-5.29-3.33l2.57-3.08a10.41,10.41,0,0,0,4.22,2.71,16,16,0,0,0,5.7,1,12.48,12.48,0,0,0,6.5-1.53,4.71,4.71,0,0,0,2.63-4,3.68,3.68,0,0,0-1.61-3.37,15.48,15.48,0,0,0-6-1.89c-3.6-.61-6.21-1.57-7.85-2.89a6.39,6.39,0,0,1-2.41-5.33,7.56,7.56,0,0,1,3.54-6.31,15.59,15.59,0,0,1,9-2.39,19.23,19.23,0,0,1,6.24.87,13.53,13.53,0,0,1,4.76,3l-2.57,3c-2-2.09-4.88-3.13-8.65-3.13a11.5,11.5,0,0,0-5.82,1.31,4.07,4.07,0,0,0-2.36,3.39,3.34,3.34,0,0,0,1.66,3A15.42,15.42,0,0,0,444,608c3.86.67,6.61,1.68,8.27,3a6.6,6.6,0,0,1,2.39,5.59A8.61,8.61,0,0,1,451,623.7Q447.3,626.37,441.31,626.37Z" transform="translate(-4.66 -81.26)"/><path class="cls-4" d="M497.16,595.36l-.7,4H486.19l-4.65,26.49h-4.31l4.7-26.49H471.67l.73-4Z" transform="translate(-4.66 -81.26)"/><path class="cls-4" d="M523.82,595.36h4.3l-5.35,30.45h-4.3l2.39-13.53H503.94l-2.39,13.53h-4.27l5.35-30.45h4.27l-2.26,13h16.91Z" transform="translate(-4.66 -81.26)"/><path class="cls-4" d="M556,625.81l-1.82-6.62H537.12L533,625.81h-4.83l19-30.45H552l8.31,30.45Zm-6.92-26.06-9.56,15.44h13.7Z" transform="translate(-4.66 -81.26)"/><path class="cls-4" d="M589.41,595.36l-.7,4H578.44l-4.65,26.49h-4.31l4.7-26.49H563.92l.74-4Z" transform="translate(-4.66 -81.26)"/><path class="cls-4" d="M614.41,626.41q-6.17,0-9.85-3.56a12.56,12.56,0,0,1-3.67-9.44,18.06,18.06,0,0,1,18.66-18.66,12.55,12.55,0,0,1,10.3,4.61l-3,2.48a10,10,0,0,0-7.84-3.18,13.17,13.17,0,0,0-9.84,4.22,14.12,14.12,0,0,0-4.07,10.18,9.23,9.23,0,0,0,2.54,6.9c1.7,1.66,4.12,2.5,7.24,2.5a13.31,13.31,0,0,0,4.83-1,14.33,14.33,0,0,0,4.36-2.61l2.51,3.17A18.63,18.63,0,0,1,614.41,626.41Z" transform="translate(-4.66 -81.26)"/><path class="cls-4" d="M644.77,626.46q-6.94,0-10.52-4.52t-2.31-11.75A18.57,18.57,0,0,1,638.1,599,17.53,17.53,0,0,1,650,594.71q7,0,10.55,4.52T662.83,611a18.47,18.47,0,0,1-6.18,11.22A17.56,17.56,0,0,1,644.77,626.46Zm.44-4.05a12.64,12.64,0,0,0,8.75-3.32,14.87,14.87,0,0,0,4.65-8.73q.92-5.13-1.59-8.39t-7.42-3.26a12.63,12.63,0,0,0-8.76,3.35,14.91,14.91,0,0,0-4.68,8.74c-.6,3.42-.08,6.21,1.59,8.38S641.91,622.41,645.21,622.41Z" transform="translate(-4.66 -81.26)"/><path class="cls-4" d="M700.45,595.36h4l-5.35,30.45H694.8L698.85,603l-13.8,14.18h-.95l-8.57-15-4.13,23.66h-4.27l5.35-30.45h3.92L685.32,611Z" transform="translate(-4.66 -81.26)"/><path class="cls-4" d="M734.51,599.27H716.72l-1.61,9.18h17l-.7,3.87h-17l-1.65,9.53h18l-.7,4H707.76l5.39-30.45h22.06Z" transform="translate(-4.66 -81.26)"/><path class="cls-4" d="M774.88,595.36l-.7,4H763.91l-4.65,26.49H755l4.7-26.49H749.39l.73-4Z" transform="translate(-4.66 -81.26)"/><path class="cls-4" d="M788.14,626.46q-7,0-10.53-4.52t-2.3-11.75A18.51,18.51,0,0,1,781.46,599a17.53,17.53,0,0,1,11.85-4.26q7,0,10.55,4.52T806.19,611A18.42,18.42,0,0,1,800,622.19,17.55,17.55,0,0,1,788.14,626.46Zm.43-4.05a12.64,12.64,0,0,0,8.75-3.32,14.87,14.87,0,0,0,4.65-8.73q.91-5.13-1.59-8.39c-1.67-2.17-4.13-3.26-7.42-3.26a12.63,12.63,0,0,0-8.76,3.35,14.85,14.85,0,0,0-4.67,8.74c-.61,3.42-.09,6.21,1.58,8.38S785.27,622.41,788.57,622.41Z" transform="translate(-4.66 -81.26)"/><path class="cls-4" d="M851.64,595.36l-15.4,18L834,625.81h-4.25l2.17-12.4-8.7-18h4.7l6.52,13.83,11.75-13.83Z" transform="translate(-4.66 -81.26)"/><path class="cls-4" d="M863.52,626.46q-7,0-10.53-4.52t-2.3-11.75A18.51,18.51,0,0,1,856.84,599a17.53,17.53,0,0,1,11.85-4.26q7,0,10.55,4.52T881.57,611a18.42,18.42,0,0,1-6.18,11.22A17.55,17.55,0,0,1,863.52,626.46Zm.43-4.05a12.64,12.64,0,0,0,8.75-3.32,14.87,14.87,0,0,0,4.65-8.73q.92-5.13-1.59-8.39c-1.67-2.17-4.13-3.26-7.42-3.26a12.63,12.63,0,0,0-8.76,3.35,14.85,14.85,0,0,0-4.67,8.74c-.61,3.42-.09,6.21,1.58,8.38S860.65,622.41,864,622.41Z" transform="translate(-4.66 -81.26)"/><path class="cls-4" d="M898.1,626.41q-5.61,0-8.52-3.61c-2-2.4-2.59-5.54-1.92-9.39l3.18-18h4.3l-3.22,18.22q-.74,4.17,1,6.51c1.15,1.55,3,2.32,5.55,2.32a10.07,10.07,0,0,0,6.72-2.37,10.65,10.65,0,0,0,3.54-6.54l3.22-18.14h4.31L913,613.5c-.75,4.23-2.42,7.44-5,9.63A14.78,14.78,0,0,1,898.1,626.41Z" transform="translate(-4.66 -81.26)"/><path class="cls-5" d="M742,109.54c-20.42,2.88-40.61,9.19-59.5,17.41a198.57,198.57,0,0,1,51.39-23.38c-21-14.15-47.21-22.31-76.91-22.31-88,0-173.43,71.35-190.78,159.37a91.56,91.56,0,0,0-1.56,17.3,31.2,31.2,0,0,1,4.25-4l2.36-8.3,8.93-4.66L482,221.4a5.41,5.41,0,0,1,5.39-4.91h10.47l3.69-3.08h3.17l3.55-8.64,3.1-.07,13.37-20.32,26.82-8a24.52,24.52,0,0,1,6.86-1h11c19.19-16.57,43.56-26.93,68.36-26.93,48.31,0,79.76,39.17,70.24,87.48-9.43,47.85-55.51,86.66-103.33,87.41v.07H478.72c11.1,29.36,27.3,59.32,43.36,85.49,24.86,8.6,52.94,1.36,77.26-6.94,61.44-23.13,121-66.37,167.43-118,9.08-15.5,15.53-30.2,18.11-43.31C795.6,186.28,777.82,138.31,742,109.54Z" transform="translate(-4.66 -81.26)"/><path class="cls-2" d="M575.42,240.23c-3.18.26-4.26,3-6.12,4.88-.46.46-1.48.43-2.24.51-2,.22-4.08.38-6.12.57l-.09,1.24c2-.11,4-.34,6-.31a5.5,5.5,0,0,0,5.09-2.8,5.68,5.68,0,0,1,3.33-2.18c2.19-.37,3.12-1.32,3.28-3.46.37-4.88.88-9.77,1.28-14.66.26-3.23-.64-4.18-3.83-4.29a12.39,12.39,0,0,1-3.54-.35c-2-.73-3.83-1.84-5.8-2.65-1.64-.67-2.58.08-3,1.89-1.44,6.3-3,12.59-4.43,18.9a11.8,11.8,0,0,0-.16,1.7l9.93-.55c.49-5.54,1-11,1.49-16.71,1.86,0,3.41.07,5,0,1.76-.11,2.23.69,2.06,2.34-.48,4.62-.83,9.24-1.3,13.86C576.13,238.87,575.68,240.21,575.42,240.23Z" transform="translate(-4.66 -81.26)"/><path class="cls-2" d="M670.29,295a6.78,6.78,0,0,1-1.4.17c-11.11-.39-22.21-.79-33.31-1.26-.6,0-1.13-.6-1.69-.93.59-.32,1.23-1,1.76-.94q16.89,1,33.73,2.05a8.25,8.25,0,0,1,1.2.25l0,.42a130.29,130.29,0,0,0,11.15-11.85l-55.21-5.94c-6.26-.67-12.5-1.37-18.81-2.06,2.58-28.91,5.14-57.56,7.73-86.6,32.57,11.31,25.36,6.69,57.66,17.9l.61-1a14.38,14.38,0,0,0-2.48-1.57c-28.31-11.05-17.2-6.1-45.41-17.34-6.82-2.72-13.65-4.43-21.26-3.83-2.85.23-5.7,0-8.75,0-.13,1.55-.23,2.67-.33,3.8q-3.84,42.93-7.67,85.86c-.06.7-.09,1.4-.2,2.1a6.54,6.54,0,0,1-7,5.77L551,278c-3.88-.27-3.95-.36-3.47-4.76l33.34,2.39c.08-.46.17-.92.25-1.39-11.9-1.75-23.93-2.91-35.64-4.38-.26,8.66-.51,17-.77,25.48l.39.3c3.21-.57,4.44.09,4.8,3,.32,2.51,1.78,4.77,2.77,7.21H533.17c1.53-1.72,3.38-3.2,4.42-5.07,4.52-8.12,5.3-16.44,2.23-24.52-.77-2-2.77-3.7-4.61-5s-3.91-.76-4.89,1.79c-2,5.24-4.12,10.47-5.82,15.79-1.12,3.51-2.55,5-6.18,5.11-2.33,0-4.66,0-7.27,0,.24,4.93,1.68,8.86,5.45,11.8H480a15.1,15.1,0,0,0,7.65-10.44c.64-3,2-3.5,4.71-3.45,8.45.17,16.93.06,25.39,0,3.51,0,4.06-.46,4.84-4,1.34-6.11,3.31-12,7-17.35s6.65-6.52,12.65-5.23a4.36,4.36,0,0,0,1.16-.21,18.88,18.88,0,0,0-1-2.27,11.68,11.68,0,0,0-9.59-5.75c-8.4-.57-15,3.26-19.85,10.28-2.24,3.22-3.84,6.85-5.71,10.26,0,0-.16-.16-.15-.28.71-8.2,1.38-16.41,2.23-24.61.08-.74,1.28-1.85,2.13-2.13,7.57-2.48,15.18-4.81,22.78-7.2,1.65-.51,3.28-1.08,4.92-1.62a3.74,3.74,0,0,0-2.39-.14c-5.47,1.2-10.93,2.46-16.4,3.63-4.94,1.06-9.92,2.61-14.85,2.91-8,.49-16.06.14-24.09.12a8.18,8.18,0,0,1-1.61-.4,77.28,77.28,0,0,1,6.82-4.7c2.88-1.54,3.81-3.62,3.92-6.64.2-5,.83-10.06,1.29-15.15h7l-7.33,17.68h56.13a5.52,5.52,0,0,0,1.82-.06c.56-.21,1.36-.7,1.47-1.17,1.81-7.12,3.51-14.26,5.28-21.53a19.27,19.27,0,0,0-2-.22q-22,0-43.91,0c.66-3.41,3.06-3.14,5.49-3.13q26.44.06,52.89,0h2.58c1.95-8,8.66-23.62,8.66-23.62s13.15-4.9,18.8-9.23c-.94-.07-1.51-.15-2.08-.15-12.13,0-24.25-.07-36.4.07a45.65,45.65,0,0,0-9.69,1.11c-7.33,1.69-23.15,6.82-23.15,6.82s-7.51,10.2-13.48,19.91a2.84,2.84,0,0,1-2,1.19c-2.88-.43-3,1.81-3.76,3.52-.82,1.89.33,2.58,1.66,3.49h-6.65c-.85,0-1.79,1-2.68,1.48s-1.68,1.35-2.49,1.39c-3.24.17-6.47.16-9.69.07A3.11,3.11,0,0,0,485,222c-.39,5.41-1,10.83-1.36,16.25-.08,1.37.61,2.72,1,4.44-2,1.08-4.6,2.69-7.35,4a5.43,5.43,0,0,0-3,4.53c-.58,8.1-1.39,16.21-2.12,24.31a9.33,9.33,0,0,1-.21,1.83c-.1.34-.51.62-.78.93-.29-.31-.82-.59-.85-.94a21.5,21.5,0,0,1,.19-2.87q.74-8.32,1.48-16.63l-.71-.47c-2.15,1.86-4.47,3.56-6.43,5.6-6.28,6.49-8.18,14.52-9.26,22.72-.31,2.31-1.71,5.25,1.65,6.45.15.05.22.44.22.68,0,5.21,1.6,9.62,6.3,13.24H440.22c-.09,1.06-.16,1.82-.24,2.72H648a14.76,14.76,0,0,0,8.41-2.67A123.32,123.32,0,0,0,670.29,295ZM519.78,267.85h4.7c-.68,2.15-1.12,3.75-1.71,5.31a1.69,1.69,0,0,1-1.16.84c-2.85.07-5.69,0-8.56,0C514,268.75,515,267.85,519.78,267.85ZM504.71,219.7c2.3-1.6,6.41-.49,9.72-.49q17,0,34,0h2.78c0,.24,0,.48,0,.72-.88.06-1.76.16-2.64.18-11.87.31-23.76.73-35.62.83-2.89,0-4,1-4.67,3.67-1.05,4.2-2.5,8.34-3.8,12.57h-7.62c1.19-2.9,2.24-5.61,3.4-8.29C501.6,225.69,502.3,221.37,504.71,219.7Zm-43,54c.63-5.67,2-6.75,7.17-5.43C467.18,274.82,468.29,274.4,461.67,273.74ZM502.53,253a1.08,1.08,0,0,1,2.15.21l-2.44,25.5a1.08,1.08,0,0,1-1.07,1h-.1a1.09,1.09,0,0,1-1-1.18ZM497,253a1.06,1.06,0,0,1,1.17-1,1.08,1.08,0,0,1,1,1.18l-2.44,25.5a1.08,1.08,0,0,1-1.08,1h-.1a1.08,1.08,0,0,1-1-1.18Zm-5.57,0a1.08,1.08,0,0,1,2.15.21l-2.43,25.5a1.09,1.09,0,0,1-1.08,1h-.1a1.08,1.08,0,0,1-1-1.18Zm-5.56,0a1.06,1.06,0,0,1,1.17-1,1.08,1.08,0,0,1,1,1.18l-2.44,25.5a1.08,1.08,0,0,1-1.07,1h-.11a1.08,1.08,0,0,1-1-1.18Zm-5.57,0a1.08,1.08,0,0,1,2.15.21L480,278.75a1.08,1.08,0,0,1-1.07,1h-.1a1.08,1.08,0,0,1-1-1.18Zm-4.93,34.31H502l-.08.66H475.28Zm52.85,9.84c-1.1-2.75-1.38-5.87-2-8.83,1.18-3,1.92-5.92,3.37-8.45,1.89-3.32,4.74-3.27,6.45-.21,2.4,4.28,1.52,13.37-1.7,17.56C532.1,300.1,529.42,300.24,528.19,297.19Zm19.72-5.42c-.72-2.56.63-2.62,2.33-2.54q21.07.94,42.17,1.81c1.19,0,2.4,0,3.52,0,1.15-3,2.15-5.69,3.16-8.34l.83.23c-.75,3.37-1.49,6.74-2.34,10.56Zm47.61,14H585.7c1.29-2.64,2.59-5.48,4.1-8.21a3,3,0,0,1,2.17-.89c3.74-.09,7.48,0,11.31,0,.79-3.31,1.45-6.67,2.43-10a16.94,16.94,0,0,1,5.18-8.59c-3.52,6.44-4.67,13.23-5.22,20.32H592Zm19.3-4.57c-1.59,2.87-4.26,2.91-5.21,0s-2.1-6.15-1.8-9.46,1.91-6.37,3.37-9.18c1.59-3.09,4.19-3.09,5.33-.07C618.83,288.7,618.24,295.05,614.82,301.22Zm9.56,1.91a3,3,0,0,1-2.26-1.87,22.36,22.36,0,0,1,1.62-17.94c.42-.83,1.67-1.91,2.36-1.85a3,3,0,0,1,2.26,1.9c.7,2.84,1.77,5.72,1.51,8.84s-1.82,6-3,8.88A3.83,3.83,0,0,1,624.38,303.13Zm6.74-3.68c.55-1.32,1.1-1.86,2.49-1.81,3.39.12,6.8.06,10.18.24a2.14,2.14,0,0,1,1.63,1.3c.59,2.16.94,4.42,1.36,6.54H627.84C629,303.55,630.25,301.56,631.12,299.45Z" transform="translate(-4.66 -81.26)"/><path class="cls-2" d="M836.4,278.72c-.31,1.48-.62,3-.92,4.44C829,314.48,822.07,345.73,815.37,377H935.61c6.7-31.28,13.59-62.53,20.1-93.85q4.14-19.87,8.3-39.8C941,248.9,868.06,266.74,836.4,278.72Z" transform="translate(-4.66 -81.26)"/><path class="cls-2" d="M739.68,143.52q-4.73,22.88-9.46,45.75h125q-8.13,37.93-16,75.85c31.34-9.88,91.11-27.8,127.07-32.71q4.53-21.57,9.13-43.14h125q4.74-22.87,9.47-45.75Z" transform="translate(-4.66 -81.26)"/><path class="cls-5" d="M995.27,231.59c5.25,8-5.82,24.4-27.56,47.89l-6.38,33.68c41.36-41.52,66.22-70.86,48.34-93.69-7-8.94-23.8-15.83-134.79,15.9-24.76,7.08-44.18,12.57-64.17,18.29-15,4.28-9.76-11.08-10.07-11l-43.25,54.47c12.78-10.67,28.08-14.37,36.72-17.24C884.33,250,980.21,224.69,995.27,231.59Z" transform="translate(-4.66 -81.26)"/><path class="cls-5" d="M1002.78,360.06a2.53,2.53,0,0,0-3.41-1.18c-23.4,11.5-80.69,38.26-99.35,40.68a49.82,49.82,0,0,1-6.19.45,3.21,3.21,0,0,1-2.92-4.47,49.83,49.83,0,0,1,3.51-6.72l-20.24-1.48c-4.21,9.49-3.93,15.86-1.37,21.08,4.25,8.65,13.66,10.4,21.09,10.4a65.18,65.18,0,0,0,8.53-.64c24.27-3.15,90.21-35.07,105.24-42.46a2.57,2.57,0,0,0,1.16-3.45Z" transform="translate(-4.66 -81.26)"/><polygon class="cls-2" points="487.64 322.26 44.75 322.26 39.33 352.2 507.82 352.2 487.64 322.26"/><path class="cls-2" d="M973.62,403.52S923.74,425,896.16,425c-25.68,0-32-11.92-32.39-21.47H685.3l-29.61,29.94h375.56l5.42-29.94Z" transform="translate(-4.66 -81.26)"/><path class="cls-2" d="M682.45,127C715.66,105.81,755.3,86,796.36,89c45.4,4.31,56.29,46.64,44.57,84.62C809.71,281,657.22,410.35,544.15,414.53c-32.73.91-62.53-17.1-58.45-53.25.92,13.91,6.72,28.08,18.75,35.44,35,19.37,85-4.15,117.7-20.6,73-40.86,139.23-99.21,182.67-171,18.92-31.75,42.24-92.54-10.44-102.42-38.67-5.47-76.06,9.37-111.93,24.25Z" transform="translate(-4.66 -81.26)"/><path class="cls-4" d="M837.47,250.37c48.68-15,98-30.84,149-34.59,22.51-2.47,28.64,18.05,20.62,35.84,6.79-16.7.54-37.1-20.58-34-50.6,5.05-99.68,20.87-149.08,32.73Z" transform="translate(-4.66 -81.26)"/><path class="cls-7" d="M1047.45,246.28" transform="translate(-4.66 -81.26)"/><path class="cls-4" d="M885.15,394.36c3.19,21.93,39.36,1.29,51.53-2.91l55.31-24c-15.58,7.41-105.42,61.16-106.84,26.93Z" transform="translate(-4.66 -81.26)"/><path class="cls-2" d="M803.18,247s-1.61,6.91,4.86,5.7c8-1.5,12.24-4,16.89-5.64a1,1,0,0,1,1.29,1.18L808,274.07a5.78,5.78,0,0,1-3.5,2.59c-4.86,1.54-20.58,5.65-30.45,11.76-10.7,6.63-19.72,17.88-32.21,25.91-6.65,4.28,24.21-23.84,24.21-23.84l30.32-37.3Z" transform="translate(-4.66 -81.26)"/><path class="cls-4" d="M740.78,100C845,63.84,861.28,147.37,813,221.93c-3.35,9.33-36.79,40.67-8.86,34.08a108,108,0,0,0,17-4.69,109.32,109.32,0,0,1-16.65,6c-31.12,7.1,2.67-26.56,6.71-36.5C856.59,145.91,845,68.54,740.78,100Z" transform="translate(-4.66 -81.26)"/><path class="cls-4" d="M786.67,278.55c-23.25,6-39.86,23.65-57.36,38.92A679.81,679.81,0,0,1,674.17,361C635.67,387.79,591,406,544.3,411.6a317.36,317.36,0,0,0,128.29-52.91,675.73,675.73,0,0,0,55.62-42.52c17.48-15.09,35.15-32.27,58.46-37.62Z" transform="translate(-4.66 -81.26)"/></svg>